HIERARCHY
ROOT ROOT
{
	OFFSET 0.000000 56.020000 -5.659234
	CHANNELS 6 Xposition Yposition Zposition Xrotation Yrotation Zrotation 
	JOINT C_spine0001_bind_JNT
	{
		OFFSET 0.000000 1.618999 0.000000
		CHANNELS 3 Xrotation Yrotation Zrotation
		JOINT C_spine0002_bind_JNT
		{
			OFFSET 0.000000 4.942001 0.000001
			CHANNELS 3 Xrotation Yrotation Zrotation
			JOINT C_spine0003_bind_JNT
			{
				OFFSET 0.000000 4.942001 -0.000000
				CHANNELS 3 Xrotation Yrotation Zrotation
				JOINT C_neck0001_bind_JNT
				{
					OFFSET 0.000000 17.026009 -0.000000
					CHANNELS 3 Xrotation Yrotation Zrotation
					JOINT C_neck0002_bind_JNT
					{
						OFFSET 0.000000 3.249985 0.000000
						CHANNELS 3 Xrotation Yrotation Zrotation
						JOINT C_head_bind_JNT
						{
							OFFSET 0.000000 5.278008 0.000000
							CHANNELS 3 Xrotation Yrotation Zrotation
							End Site
							{
								OFFSET 0.000000 0.000000 0.000000
							}
						}
					}
				}
				JOINT L_clavicle_bind_JNT
				{
					OFFSET 4.590000 12.067001 0.834000
					CHANNELS 3 Xrotation Yrotation Zrotation
					JOINT L_armUpper0001_bind_JNT
					{
						OFFSET 7.812635 0.512001 -3.452945
						CHANNELS 3 Xrotation Yrotation Zrotation
						JOINT L_armLower0001_bind_JNT
						{
							OFFSET 15.265892 -6.552116 -0.058157
							CHANNELS 3 Xrotation Yrotation Zrotation
							JOINT L_hand0001_bind_JNT
							{
								OFFSET 14.747667 -6.369995 5.049225
								CHANNELS 3 Xrotation Yrotation Zrotation
								End Site
								{
									OFFSET 0.000000 0.000000 0.000000
								}
							}
						}
					}
				}
				JOINT R_clavicle_bind_JNT
				{
					OFFSET -4.590000 12.067001 0.834000
					CHANNELS 3 Xrotation Yrotation Zrotation
					JOINT R_armUpper0001_bind_JNT
					{
						OFFSET -7.812635 0.512001 -3.452945
						CHANNELS 3 Xrotation Yrotation Zrotation
						JOINT R_armLower0001_bind_JNT
						{
							OFFSET -15.265890 -6.552124 -0.058160
							CHANNELS 3 Xrotation Yrotation Zrotation
							JOINT R_hand0001_bind_JNT
							{
								OFFSET -14.746784 -6.369629 5.048937
								CHANNELS 3 Xrotation Yrotation Zrotation
								End Site
								{
									OFFSET 0.000000 0.000000 0.000000
								}
							}
						}
					}
				}
			}
		}
	}
	JOINT C_pelvis0001_bind_JNT
	{
		OFFSET -0.000000 0.000000 0.000000
		CHANNELS 3 Xrotation Yrotation Zrotation
		JOINT L_legUpper0001_bind_JNT
		{
			OFFSET 6.599999 -6.027000 0.539000
			CHANNELS 3 Xrotation Yrotation Zrotation
			JOINT L_legLower0001_bind_JNT
			{
				OFFSET -0.140713 -19.187443 0.040261
				CHANNELS 3 Xrotation Yrotation Zrotation
				JOINT L_foot0001_bind_JNT
				{
					OFFSET -0.132215 -18.028637 -1.138370
					CHANNELS 3 Xrotation Yrotation Zrotation
					JOINT L_foot0002_bind_JNT
					{
						OFFSET 0.007014 -4.693133 9.886524
						CHANNELS 3 Xrotation Yrotation Zrotation
						End Site
						{
							OFFSET 0.000000 0.000000 0.000000
						}
					}
				}
			}
		}
		JOINT R_legUpper0001_bind_JNT
		{
			OFFSET -6.599999 -6.027000 0.539000
			CHANNELS 3 Xrotation Yrotation Zrotation
			JOINT R_legLower0001_bind_JNT
			{
				OFFSET 0.140710 -19.187164 0.040550
				CHANNELS 3 Xrotation Yrotation Zrotation
				JOINT R_foot0001_bind_JNT
				{
					OFFSET 0.132215 -18.028633 -1.138362
					CHANNELS 3 Xrotation Yrotation Zrotation
					JOINT R_foot0002_bind_JNT
					{
						OFFSET -0.007014 -4.693128 9.886505
						CHANNELS 3 Xrotation Yrotation Zrotation
						End Site
						{
							OFFSET 0.000000 0.000000 0.000000
						}
					}
				}
			}
		}
	}
}
MOTION
Frames: 12
Frame Time: 0.033333
82.776566 47.431866 155.802628 0.051046 -7.862785 -0.073912 10.940856 23.390886 -10.452496 -0.859464 -5.659488 1.082586 9.290760 -2.164997 0.244793 20.493948 -2.005864 0.500559 -0.539187 -0.799433 -0.464894 2.180538 -5.095314 0.469148 0.379911 1.909047 10.976192 -57.924885 -24.749660 -64.965714 -8.427762 -13.049584 -16.991753 -2.914803 -12.995935 -26.344883 -0.947520 3.267451 -13.120193 -3.441737 -38.589241 22.942413 5.089734 -25.715578 12.009095 -7.697260 13.634433 22.694893 3.691533 34.034164 -5.089566 9.787589 -6.716352 -4.145218 20.940714 -1.551728 -3.372746 -5.268728 5.925530 -3.234291 -26.869524 -2.954976 10.991513 -33.473167 -6.653962 2.425697 25.223282 1.213396 0.589906 3.829726 6.447957 4.355244 -0.542726 1.328323 0.000707 
83.935509 47.040600 157.263840 0.036207 -8.872149 -0.049799 13.203451 24.809597 -9.573859 -0.218406 -5.907461 1.448941 9.877873 -1.847794 1.127697 20.987190 -2.019355 0.607734 -0.474811 -0.652793 -0.552101 3.747220 -5.233046 0.682445 1.179048 2.666613 11.926295 -58.008724 -24.039711 -65.435570 -8.968876 -15.465140 -16.794418 -2.883018 -12.592275 -26.837862 -0.954163 2.814103 -13.556630 -2.916524 -40.475925 23.911362 4.007705 -27.337210 12.876170 -8.720447 14.642689 22.835848 5.121291 35.909985 -4.787226 8.483525 -6.576092 -4.921040 23.165663 -1.377612 -3.577327 -2.394457 5.185037 -5.591489 -30.756723 -3.158452 11.746930 -34.732334 -7.108074 1.817770 28.189079 1.465218 0.126975 3.045144 5.544908 1.985298 -0.972625 1.185489 -0.164427 
84.993744 46.874573 158.622803 0.038782 -9.116817 -0.068641 15.395734 25.269930 -9.046008 -0.145628 -5.790234 2.437019 10.026688 -1.529895 1.575085 21.978867 -2.242081 0.457724 -0.652524 -0.710947 -0.291798 5.193948 -5.330067 0.745664 2.231816 3.958289 13.156535 -57.872898 -23.889614 -66.874954 -8.978232 -16.605804 -17.236547 -2.445351 -12.535589 -27.099640 0.297273 2.434648 -13.551215 -3.016505 -41.217861 25.948233 3.248053 -27.927116 13.094637 -9.703055 15.325532 24.042759 6.987525 36.364586 -5.370670 6.582666 -5.540924 -4.724284 25.760628 -1.297771 -4.099788 2.204736 3.092093 -8.544204 -35.319862 -4.360077 13.889475 -36.103615 -8.647430 1.396583 29.920431 2.839588 -0.383925 2.052627 5.066957 -0.143460 -1.302962 0.941683 -0.537639 
86.013756 46.594456 159.900497 0.041097 -10.021482 -0.079262 17.796310 26.430717 -8.436010 0.390030 -5.693420 3.066876 10.298026 -1.155019 2.167215 22.551445 -2.189270 0.892230 -0.536013 -0.940713 -0.425915 5.984973 -5.077863 1.333286 3.175472 5.269107 14.233477 -56.951099 -24.604677 -67.564529 -9.395512 -17.447132 -17.220974 -2.161114 -12.460947 -28.283751 1.119184 1.955690 -13.985757 -1.751354 -40.405975 30.487986 2.054177 -28.697264 13.657614 -9.571971 16.318581 25.010921 8.940601 37.383884 -5.997829 4.267046 -4.510984 -4.532156 28.266581 -0.814896 -4.523005 7.419767 -0.397650 -11.416515 -36.732506 -2.892247 15.869633 -37.618702 -9.321581 0.783697 32.716816 3.789242 -0.708689 -0.304850 4.075006 -1.914445 -1.304566 0.712460 -0.362028 
86.998619 46.223518 161.093826 0.038134 -11.032390 -0.082792 19.720961 27.807386 -7.784682 0.474411 -5.483165 3.496686 10.554688 -0.818998 2.886409 23.017262 -2.630699 0.838501 -0.589293 -0.786206 -0.178204 7.517780 -5.561096 2.350327 4.262272 6.084970 15.079481 -55.002693 -23.910410 -67.405899 -9.094669 -18.381153 -16.957237 -2.123079 -11.850926 -29.116747 2.199913 1.549525 -14.286264 -1.762413 -37.828938 34.122013 1.161798 -28.996958 12.926553 -10.489535 16.151966 27.017145 9.869729 38.282917 -6.320308 2.554195 -2.968741 -4.003760 31.752636 -0.580935 -5.369309 12.822999 -5.332231 -14.343982 -33.014893 -0.234737 17.546778 -38.610249 -9.485311 1.010569 36.116493 3.817126 -0.947743 -2.936525 3.416418 -3.660650 -1.921333 0.478290 -0.436333 
87.877136 45.923565 162.183548 0.042330 -12.024199 -0.077836 21.474379 28.902802 -7.129868 0.877804 -5.159794 3.858259 10.712447 -0.637799 3.412033 23.705654 -2.732003 1.134624 -0.423221 -0.708629 -0.048497 8.918418 -5.743536 3.173820 4.977081 7.605082 16.180271 -52.734898 -24.174982 -68.341393 -9.013156 -17.700150 -15.946836 -1.623366 -11.476920 -29.934586 3.148803 1.106502 -14.788116 -2.397680 -34.569321 37.662624 1.414958 -28.842094 12.541699 -10.303120 15.867478 28.946898 11.620492 38.887363 -6.919453 -0.623738 -1.191625 -3.531227 36.021778 -0.722446 -5.811155 17.288170 -10.822976 -16.697838 -24.625792 4.002035 16.289347 -39.027817 -9.492579 0.774225 38.977489 4.779329 -1.741122 -6.078761 1.858706 -4.699507 -2.147107 0.463753 -0.368878 
88.585243 45.893234 163.068436 0.040603 -12.320558 -0.077280 23.034687 29.771116 -5.995777 0.807005 -5.005840 4.151445 11.246073 -0.372537 3.768443 23.852085 -2.963444 1.716336 0.018643 -1.087131 0.234900 9.392871 -6.159480 4.012010 5.227914 8.042906 17.248224 -49.159477 -23.186110 -68.971008 -6.298109 -17.201111 -14.238603 -2.672883 -10.289090 -29.736248 4.393575 0.215968 -14.479107 -4.422619 -29.584246 41.365383 0.227388 -28.155157 11.003769 -10.429442 15.025498 30.595118 12.511358 38.771008 -7.039230 -3.458504 -0.515156 -3.035788 40.769669 -0.660808 -6.269903 18.461164 -14.046541 -18.421934 -16.235985 6.152171 11.883788 -39.019585 -9.718326 0.441084 39.717293 6.385235 -2.084131 -7.796626 1.184297 -5.069642 -2.036028 0.486575 -0.531711 
89.319298 46.251148 163.925171 0.054082 -13.212768 -0.076715 24.778975 30.435902 -5.473296 1.573163 -4.396097 4.285754 11.682945 -0.185354 4.324516 23.829821 -3.247820 1.995762 -0.026476 -0.800183 0.104301 9.890889 -6.531091 4.972902 5.292668 8.392680 18.011189 -45.725185 -22.057405 -68.848541 -3.051302 -13.740565 -12.873113 -3.530330 -10.683514 -29.919744 4.581645 -0.917809 -14.073987 -7.393516 -23.940697 43.309868 1.008116 -26.017096 10.917698 -9.068309 14.044572 31.455500 13.845845 38.724186 -7.274006 -6.387046 0.278118 -3.023164 44.317860 -0.910475 -6.532501 16.973288 -13.618073 -19.150162 -12.450290 5.147303 7.965860 -38.194820 -8.935111 -0.234961 38.938694 7.669377 -2.357005 -8.895253 0.180737 -5.056123 -2.194959 0.711770 -0.815287 
89.879021 46.833317 164.859436 0.039908 -13.730165 -0.092956 26.331629 31.162928 -4.968613 1.693456 -4.165947 4.484633 12.100019 -0.073459 4.316989 23.968761 -3.315944 2.471845 0.158511 -1.253795 0.382176 9.334571 -6.115433 6.313960 5.667048 8.107406 18.629595 -41.554001 -19.958324 -67.735100 2.632009 -8.104460 -12.125421 -5.394373 -11.226749 -29.622755 4.777435 -1.618469 -12.395294 -11.215923 -17.095041 44.431557 0.095223 -23.281778 10.519107 -8.869571 13.578901 32.656326 14.297106 38.401852 -6.473394 -9.361684 1.367722 -3.788903 48.342808 -0.678388 -5.969522 14.145107 -10.011329 -18.828596 -12.989568 3.195553 5.191690 -36.488491 -8.323648 -1.036434 37.032528 8.194670 -2.326157 -8.692319 0.053658 -4.979747 -2.426760 0.614501 -0.840912 
90.493393 47.586163 165.681458 0.058423 -13.486049 -0.073507 27.361767 30.288374 -4.548218 2.304327 -3.641576 4.160297 13.041142 -0.320512 4.627272 23.967974 -3.281774 2.700107 0.108780 -0.819726 0.281369 9.463281 -5.995316 7.056535 6.383924 7.969338 19.077559 -38.747131 -17.935020 -66.321617 5.866309 -0.524940 -11.805757 -5.895705 -12.432233 -30.576635 4.071988 -1.643586 -10.474236 -14.482613 -10.772246 44.396236 -1.021133 -18.213057 10.652030 -9.330202 12.479159 33.796219 14.826284 36.654354 -5.683414 -12.691345 3.325846 -4.273701 50.512280 -1.154618 -5.897055 10.908673 -5.420393 -16.100721 -13.758445 2.092591 3.558039 -34.454121 -7.289533 -1.163052 33.923073 9.095739 -2.414109 -7.666769 -0.553969 -4.457853 -2.817398 0.670393 -1.067863 
91.304749 48.330399 166.511154 0.027605 -13.212658 -0.097828 28.432419 29.758760 -4.675403 2.504769 -3.371748 4.304410 13.467876 -0.219334 4.346475 23.894911 -3.522354 3.528136 0.271843 -0.660835 0.002627 9.280828 -5.506369 8.687943 6.583322 6.816225 19.633356 -34.814789 -15.557041 -64.306519 9.454707 7.113563 -11.444595 -7.185910 -12.947377 -32.049747 2.795491 -1.814836 -9.112905 -16.991697 -5.029999 44.730278 -3.358266 -12.604113 10.624074 -10.377980 11.974886 34.341763 14.681858 35.359631 -3.956055 -16.164753 4.363168 -5.007859 52.327927 -0.579663 -5.882275 7.461269 -1.418255 -13.308438 -13.935411 1.044457 2.704576 -31.685665 -6.512651 -2.714684 29.913372 9.747532 -2.262233 -5.935924 -0.537878 -3.674964 -3.350205 0.472166 -1.162438 
92.398903 49.100552 167.271942 0.052580 -12.923835 -0.065198 29.349970 28.545631 -5.083766 3.089424 -2.640510 4.148293 14.141071 -0.588957 4.424212 23.854326 -3.186039 3.602734 0.056407 -0.527943 0.021545 9.065809 -5.622196 9.018233 6.569359 6.327106 19.314463 -31.124369 -13.712196 -62.136528 10.183471 12.349690 -10.509482 -7.466685 -13.240307 -33.128693 1.042556 -1.813805 -8.035495 -18.156239 -1.376592 44.026043 -5.425240 -5.671685 12.135723 -11.687330 11.667583 33.944584 14.641360 33.525440 -2.844929 -19.871653 5.500837 -4.561097 52.422394 -0.528573 -6.427583 3.823169 1.277966 -10.128636 -13.832464 1.107859 3.366422 -29.838037 -5.602581 -4.019483 26.612928 9.860732 -2.164882 -4.355539 -0.244752 -2.271859 -3.579305 0.347287 -1.385401 
